<svg width="512" height="512" viewBox="0 0 512 512" fill="none" xmlns="http://www.w3.org/2000/svg">
<g clip-path="url(#clip0_5_302)">
<path d="M503.465 494.934H418.134V17.074C417.822 7.35927 409.717 -0.269523 400.002 0.00781659H112.006C102.291 -0.269523 94.182 7.35927 93.8734 17.074V494.934H8.5387C3.82783 494.934 0.00756836 498.755 0.00756836 503.465C0.00756836 508.18 3.82783 512 8.5387 512H503.465C508.18 512 512 508.18 512 503.465C512 498.755 508.18 494.934 503.465 494.934V494.934ZM179.204 358.401V341.335H332.804V358.401H179.204ZM332.804 375.467V392.533H179.204V375.467H332.804ZM179.204 324.269V307.203H332.804V324.269H179.204ZM179.204 290.136V273.07H332.804V290.136H179.204ZM332.804 170.673V187.739H179.204V170.673H332.804ZM179.204 153.603V136.537H332.804V153.603H179.204ZM332.804 204.806V221.872H179.204V204.806H332.804ZM332.804 238.938V256.004H179.204V238.938H332.804ZM332.804 119.471H179.204V102.405H332.804V119.471ZM179.204 409.6H332.804V426.67H179.204V409.6ZM332.804 85.3386H179.204V68.2725H332.804V85.3386ZM179.204 443.736H332.804V460.802H179.204V443.736ZM358.401 273.07C363.116 273.07 366.936 276.891 366.936 281.601C366.936 286.316 363.116 290.136 358.401 290.136C353.69 290.136 349.87 286.316 349.87 281.601C349.87 276.891 353.69 273.07 358.401 273.07ZM110.838 17.4646C111.158 17.1834 111.58 17.0427 112.006 17.074L128.006 17.0701V494.934H110.94L110.838 17.4646ZM145.072 17.074H366.936V257.574C361.44 255.481 355.366 255.481 349.87 257.574V59.7413C349.87 55.0266 346.049 51.2063 341.335 51.2063H170.673C165.958 51.2063 162.138 55.0266 162.138 59.7413V494.934H145.072V17.074ZM179.204 494.934V477.868H332.804V494.934H179.204ZM349.87 494.934V305.632C355.366 307.726 361.44 307.726 366.936 305.632V494.934H349.87ZM384.002 494.934V17.074H400.002C400.666 17.074 401.025 17.3123 401.068 17.1404V494.934H384.002Z" fill="#062A4D" fill-opacity="0.37"/>
</g>
<defs>
<clipPath id="clip0_5_302">
<rect width="512" height="512" fill="white"/>
</clipPath>
</defs>
</svg>
