<svg width="512" height="512" viewBox="0 0 512 512" fill="none" xmlns="http://www.w3.org/2000/svg">
<path d="M503.465 494.934H494.934V25.6016C494.934 11.4609 483.473 0 469.332 0H42.668C28.5273 0 17.0664 11.4609 17.0664 25.6016V494.934H8.53516C3.82031 494.934 0 498.754 0 503.465C0 508.18 3.82031 512 8.53516 512H503.465C508.18 512 512 508.18 512 503.465C512 498.754 508.18 494.934 503.465 494.934V494.934ZM221.867 375.465V366.934C221.867 362.219 225.687 358.398 230.398 358.398V384C225.687 384 221.867 380.18 221.867 375.465V375.465ZM247.465 358.398H281.602V384H247.465V358.398ZM298.668 358.398C303.379 358.398 307.199 362.219 307.199 366.934V375.465C307.199 380.18 303.379 384 298.668 384V358.398ZM298.668 341.332H230.398C216.262 341.332 204.801 352.793 204.801 366.934H68.2656V315.734H443.734V366.934H324.266C324.266 352.793 312.805 341.332 298.668 341.332V341.332ZM443.734 247.465V298.668H68.2656V247.465H443.734ZM68.2656 230.398V179.199H443.734V230.398H68.2656ZM443.734 162.133H68.2656V110.934H443.734V162.133ZM68.2656 384H206.371C209.973 394.191 219.59 401.023 230.398 401.066H298.668C309.477 401.023 319.094 394.191 322.695 384H443.734V435.199H68.2656V384ZM443.734 93.8672H68.2656V51.1992H443.734V93.8672ZM68.2656 494.934V452.266H443.734V494.934H68.2656ZM460.801 494.934V51.1992C460.801 41.7734 453.16 34.1328 443.734 34.1328H68.2656C58.8398 34.1328 51.1992 41.7734 51.1992 51.1992V494.934H34.1328V25.6016C34.1328 20.8867 37.9531 17.0664 42.668 17.0664H469.332C474.047 17.0664 477.867 20.8867 477.867 25.6016V494.934H460.801Z" fill="#062A4D" fill-opacity="0.37"/>
</svg>
