<svg width="512" height="512" viewBox="0 0 512 512" fill="none" xmlns="http://www.w3.org/2000/svg">
<g clip-path="url(#clip0_5_288)">
<path d="M503.465 494.934H418.135V17.074C417.822 7.35927 409.717 -0.269523 400.002 0.00781659H112.006C102.291 -0.269523 94.1822 7.35927 93.8737 17.074V494.934H8.53894C3.82807 494.934 0.0078125 498.755 0.0078125 503.465C0.0078125 508.18 3.82807 512 8.53894 512H503.465C508.18 512 512 508.18 512 503.465C512 498.755 508.18 494.934 503.465 494.934V494.934ZM145.072 494.934V51.2063H366.936V494.934H145.072ZM384.002 494.934V42.6752C384.002 37.9604 380.182 34.1401 375.467 34.1401H136.537C131.826 34.1401 128.006 37.9604 128.006 42.6752V494.934H110.94L110.838 17.4646C111.159 17.1834 111.58 17.0427 112.006 17.074H400.002C400.666 17.074 401.033 17.3201 401.068 17.1404V494.934H384.002Z" fill="#062A4D" fill-opacity="0.37"/>
<path d="M284.639 202.834L314.303 158.342C316.213 155.475 316.213 151.737 314.303 148.87L263.1 72.0703C261.429 69.832 258.796 68.5156 256.003 68.5156C253.206 68.5156 250.577 69.832 248.901 72.0703L197.703 148.87C195.789 151.737 195.789 155.475 197.703 158.342L227.367 202.834L188.898 268.806C187.348 271.462 187.348 274.747 188.898 277.407L227.367 343.344L197.703 387.835C195.789 390.702 195.789 394.437 197.703 397.308L248.901 474.104C250.487 476.479 253.151 477.904 256.003 477.904C258.854 477.904 261.518 476.479 263.1 474.104L314.303 397.308C316.213 394.437 316.213 390.702 314.303 387.835L284.639 343.344L323.107 277.337C324.658 274.681 324.658 271.396 323.107 268.735L284.639 202.834ZM215.043 153.604L256.003 92.1676L296.963 153.604L275.085 186.424L263.393 166.374C261.741 163.917 258.979 162.444 256.019 162.444C253.062 162.444 250.296 163.917 248.648 166.374L236.956 186.424L215.043 153.604ZM264.534 202.244L256.003 215.045L247.468 202.244L256.003 187.627L264.534 202.244ZM296.963 392.534L256.003 453.975L215.043 392.534L236.921 359.718L248.612 379.769C250.144 382.394 252.948 384.007 255.987 384.007C259.022 384.007 261.831 382.394 263.358 379.769L275.05 359.718L296.963 392.534ZM247.468 343.898L256.003 331.098L264.534 343.898L256.003 358.515L247.468 343.898ZM274.093 327.488L263.093 310.985C261.421 308.747 258.788 307.43 255.995 307.43C253.198 307.43 250.569 308.747 248.894 310.985L237.894 327.488L206.152 273.071L237.906 218.638L248.901 235.142C250.487 237.513 253.151 238.939 256.003 238.939C258.854 238.939 261.518 237.513 263.1 235.142L274.1 218.638L305.854 273.071L274.093 327.488Z" fill="#062A4D" fill-opacity="0.37"/>
<path d="M346.628 265.219C345.593 265.652 344.64 266.258 343.812 267.012C342.253 268.649 341.37 270.813 341.335 273.07C341.351 274.184 341.581 275.285 342.019 276.313C342.796 278.457 344.483 280.145 346.628 280.922C347.651 281.36 348.753 281.59 349.87 281.602C352.128 281.57 354.292 280.688 355.929 279.129C356.683 278.297 357.288 277.348 357.722 276.313C358.159 275.285 358.39 274.184 358.401 273.07C358.37 270.813 357.487 268.649 355.929 267.012C353.476 264.59 349.804 263.883 346.628 265.219Z" fill="#062A4D" fill-opacity="0.37"/>
</g>
<defs>
<clipPath id="clip0_5_288">
<rect width="512" height="512" fill="white"/>
</clipPath>
</defs>
</svg>
