<svg width="512" height="512" viewBox="0 0 512 512" fill="none" xmlns="http://www.w3.org/2000/svg">
<path d="M503.465 494.934H494.934V25.6016C494.934 11.4609 483.473 0 469.332 0H42.668C28.5273 0 17.0664 11.4609 17.0664 25.6016V494.934H8.53516C3.82031 494.934 0 498.754 0 503.465C0 508.18 3.82031 512 8.53516 512H503.465C508.18 512 512 508.18 512 503.465C512 498.754 508.18 494.934 503.465 494.934V494.934ZM68.2656 51.1992H247.465V283.172C241.969 281.078 235.895 281.078 230.398 283.172V76.8008C230.398 72.0859 226.578 68.2656 221.867 68.2656H93.8672C89.1523 68.2656 85.332 72.0859 85.332 76.8008V290.133C85.332 294.848 89.1523 298.668 93.8672 298.668H214.902C212.809 304.164 212.809 310.238 214.902 315.734H93.8672C89.1523 315.734 85.332 319.555 85.332 324.266V469.332C85.332 474.047 89.1523 477.867 93.8672 477.867H221.867C226.578 477.867 230.398 474.047 230.398 469.332V331.23C235.895 333.324 241.969 333.324 247.465 331.23V494.934H68.2656V51.1992ZM443.734 51.1992V494.934H264.535V331.23C270.031 333.324 276.105 333.324 281.602 331.23V469.332C281.602 474.047 285.422 477.867 290.133 477.867H418.133C422.848 477.867 426.668 474.047 426.668 469.332V324.266C426.668 319.555 422.848 315.734 418.133 315.734H297.098C299.191 310.238 299.191 304.164 297.098 298.668H418.133C422.848 298.668 426.668 294.848 426.668 290.133V76.8008C426.668 72.0859 422.848 68.2656 418.133 68.2656H290.133C285.422 68.2656 281.602 72.0859 281.602 76.8008V283.172C276.105 281.078 270.031 281.078 264.535 283.172V51.1992H443.734ZM102.398 332.801H213.332V460.801H102.398V332.801ZM213.332 109.312C196.977 156.551 152.391 188.16 102.398 187.965V85.332H213.332V109.312ZM102.398 204.887C124.082 204.32 178.977 197.453 213.332 146.434V281.602H102.398V204.887ZM238.934 298.668C243.645 298.668 247.465 302.488 247.465 307.199C247.465 311.914 243.645 315.734 238.934 315.734C234.219 315.734 230.398 311.914 230.398 307.199C230.398 302.488 234.219 298.668 238.934 298.668V298.668ZM298.668 281.602V146.434C333.023 197.453 387.926 204.32 409.602 204.887V281.602H298.668ZM298.668 332.801H409.602V460.801H298.668V332.801ZM409.602 187.965C359.609 188.16 315.023 156.551 298.668 109.312V85.332H409.602V187.965ZM273.066 315.734C268.355 315.734 264.535 311.914 264.535 307.199C264.535 302.488 268.355 298.668 273.066 298.668C277.781 298.668 281.602 302.488 281.602 307.199C281.602 311.914 277.781 315.734 273.066 315.734ZM460.801 494.934V42.668C460.801 37.9531 456.98 34.1328 452.266 34.1328H59.7344C55.0195 34.1328 51.1992 37.9531 51.1992 42.668V494.934H34.1328V25.6016C34.1328 20.8867 37.9531 17.0664 42.668 17.0664H469.332C474.047 17.0664 477.867 20.8867 477.867 25.6016V494.934H460.801Z" fill="#062A4D" fill-opacity="0.37"/>
</svg>
