<svg width="512" height="512" viewBox="0 0 512 512" fill="none" xmlns="http://www.w3.org/2000/svg">
<path d="M298.668 315.734H315.734C325.16 315.734 332.801 308.094 332.801 298.668V213.332C332.801 203.906 325.16 196.266 315.734 196.266H298.668C289.242 196.266 281.602 203.906 281.602 213.332V298.668C281.602 308.094 289.242 315.734 298.668 315.734V315.734ZM298.668 213.332H315.734V298.668H298.668V213.332Z" fill="#062A4D" fill-opacity="0.37"/>
<path d="M196.266 315.734H213.332C222.758 315.734 230.398 308.094 230.398 298.668V213.332C230.398 203.906 222.758 196.266 213.332 196.266H196.266C186.84 196.266 179.199 203.906 179.199 213.332V298.668C179.199 308.094 186.84 315.734 196.266 315.734ZM196.266 213.332H213.332V298.668H196.266V213.332Z" fill="#062A4D" fill-opacity="0.37"/>
<path d="M503.465 494.934H494.934V25.6016C494.934 11.4609 483.473 0 469.332 0H42.668C28.5273 0 17.0664 11.4609 17.0664 25.6016V494.934H8.53516C3.82031 494.934 0 498.754 0 503.465C0 508.18 3.82031 512 8.53516 512H503.465C508.18 512 512 508.18 512 503.465C512 498.754 508.18 494.934 503.465 494.934V494.934ZM443.734 51.1992V358.398H264.535V51.1992H443.734ZM264.535 409.602H443.734V426.668H264.535V409.602ZM247.465 426.668H68.2656V409.602H247.465V426.668ZM264.535 392.535V375.465H443.734V392.535H264.535ZM247.465 392.535H68.2656V375.465H247.465V392.535ZM68.2656 443.734H247.465V460.801H68.2656V443.734ZM264.535 443.734H443.734V460.801H264.535V443.734ZM247.465 358.398H68.2656V51.1992H247.465V358.398ZM68.2656 477.867H247.465V494.934H68.2656V477.867ZM264.535 477.867H443.734V494.934H264.535V477.867ZM448.734 34.1328H63.2656L46.1992 17.0664H465.801L448.734 34.1328ZM34.1328 29.1328L51.1992 46.1992V494.934H34.1328V29.1328ZM460.801 494.934V46.1992L477.867 29.1328V494.934H460.801Z" fill="#062A4D" fill-opacity="0.37"/>
</svg>
