<svg width="512" height="512" viewBox="0 0 512 512" fill="none" xmlns="http://www.w3.org/2000/svg">
<g clip-path="url(#clip0_5_294)">
<path d="M486.398 0H25.6016C11.4609 0 0 11.4609 0 25.6016V503.465C0 508.18 3.82031 512 8.53516 512H503.465C508.18 512 512 508.18 512 503.465V25.6016C512 11.4609 500.539 0 486.398 0V0ZM51.1992 494.934V51.1992H247.465V494.934H51.1992ZM264.535 494.934V51.1992H460.801V494.934H264.535ZM477.867 494.934V51.1992C477.867 41.7734 470.227 34.1328 460.801 34.1328H51.1992C41.7734 34.1328 34.1328 41.7734 34.1328 51.1992V494.934H17.0664V25.6016C17.0664 20.8867 20.8867 17.0664 25.6016 17.0664H486.398C491.113 17.0664 494.934 20.8867 494.934 25.6016V494.934H477.867Z" fill="#062A4D" fill-opacity="0.37"/>
<path d="M221.867 68.2656H196.266C165.23 68.2734 135.262 79.6172 112 100.164C111.836 100.316 111.633 100.395 111.48 100.566C111.48 100.566 111.437 100.66 111.402 100.711C83.9922 124.91 68.2852 159.703 68.2656 196.266V264.535C68.2656 269.246 72.0859 273.066 76.8008 273.066H221.867C226.578 273.066 230.398 269.246 230.398 264.535V76.8008C230.398 72.0859 226.578 68.2656 221.867 68.2656V68.2656ZM157.012 151.348L198.996 187.734H137.215C139.254 173.629 146.277 160.719 157.012 151.348ZM213.332 177.578L171.996 141.738C179.629 138.313 187.902 136.535 196.266 136.535H213.332V177.578ZM213.332 85.332V119.465H196.266C182.875 119.469 169.715 123 158.121 129.707L131.355 106.496C150.207 92.75 172.934 85.3398 196.266 85.332H213.332ZM118.125 117.625L144.059 140.102C130.578 152.574 122.027 169.48 119.969 187.734H85.7695C87.7773 161.234 99.2656 136.344 118.125 117.625ZM85.332 204.801H119.465V256H85.332V204.801ZM213.332 256H136.535V204.801H213.332V256Z" fill="#062A4D" fill-opacity="0.37"/>
<path d="M213.332 324.266H85.332C75.9062 324.266 68.2656 331.906 68.2656 341.332V460.801C68.2656 470.227 75.9062 477.867 85.332 477.867H213.332C222.758 477.867 230.398 470.227 230.398 460.801V341.332C230.398 331.906 222.758 324.266 213.332 324.266ZM85.332 460.801V341.332H213.332V460.801H85.332Z" fill="#062A4D" fill-opacity="0.37"/>
<path d="M221.867 290.133H204.801C200.086 290.133 196.266 293.953 196.266 298.668C196.266 303.379 200.086 307.199 204.801 307.199H221.867C226.578 307.199 230.398 303.379 230.398 298.668C230.398 293.953 226.578 290.133 221.867 290.133Z" fill="#062A4D" fill-opacity="0.37"/>
<path d="M400.598 100.691C400.598 100.641 400.555 100.59 400.52 100.547C400.367 100.379 400.164 100.309 400.008 100.148C376.738 79.6055 346.77 68.2695 315.734 68.2656H290.133C285.422 68.2656 281.602 72.0859 281.602 76.8008V264.535C281.602 269.246 285.422 273.066 290.133 273.066H435.199C439.914 273.066 443.734 269.246 443.734 264.535V196.266C443.719 159.699 428.012 124.895 400.598 100.691V100.691ZM392.062 187.734C390.008 169.48 381.457 152.574 367.973 140.102L393.906 117.625C412.758 136.348 424.234 161.238 426.23 187.734H392.062ZM354.988 151.348C365.723 160.719 372.746 173.629 374.785 187.734H313.004L354.988 151.348ZM298.668 177.578V136.535H315.734C324.098 136.535 332.371 138.313 340.004 141.738L298.668 177.578ZM315.734 85.332C339.066 85.3398 361.793 92.75 380.645 106.496L353.879 129.707C342.285 123 329.125 119.469 315.734 119.465H298.668V85.332H315.734ZM298.668 256V204.801H375.465V256H298.668ZM426.668 256H392.535V204.801H426.668V256Z" fill="#062A4D" fill-opacity="0.37"/>
<path d="M426.668 324.266H298.668C289.242 324.266 281.602 331.906 281.602 341.332V460.801C281.602 470.227 289.242 477.867 298.668 477.867H426.668C436.094 477.867 443.734 470.227 443.734 460.801V341.332C443.734 331.906 436.094 324.266 426.668 324.266V324.266ZM426.668 460.801H298.668V341.332H426.668V460.801Z" fill="#062A4D" fill-opacity="0.37"/>
<path d="M307.199 307.199C311.914 307.199 315.734 303.379 315.734 298.668C315.734 293.953 311.914 290.133 307.199 290.133H290.133C285.422 290.133 281.602 293.953 281.602 298.668C281.602 303.379 285.422 307.199 290.133 307.199H307.199Z" fill="#062A4D" fill-opacity="0.37"/>
</g>
<defs>
<clipPath id="clip0_5_294">
<rect width="512" height="512" fill="white"/>
</clipPath>
</defs>
</svg>
