<svg width="512" height="512" viewBox="0 0 512 512" fill="none" xmlns="http://www.w3.org/2000/svg">
<path d="M503.465 494.934H418.133V25.6016C418.133 11.4609 406.672 0 392.535 0H136.535C122.395 0 110.934 11.4609 110.934 25.6016V494.934H8.53516C3.82031 494.934 0 498.754 0 503.465C0 508.18 3.82031 512 8.53516 512H503.465C508.18 512 512 508.18 512 503.465C512 498.754 508.18 494.934 503.465 494.934V494.934ZM162.133 51.1992H366.934V494.934H162.133V51.1992ZM371.934 34.1328H157.133L140.066 17.0664H389L371.934 34.1328ZM128 29.1328L145.066 46.1992V494.934H128V29.1328ZM384 494.934V46.1992L401.066 29.1328V494.934H384Z" fill="#062A4D" fill-opacity="0.37"/>
<path d="M332.801 68.2656H196.266C186.84 68.2656 179.199 75.9062 179.199 85.332V307.199C179.199 316.625 186.84 324.266 196.266 324.266H332.801C342.227 324.266 349.867 316.625 349.867 307.199V85.332C349.867 75.9062 342.227 68.2656 332.801 68.2656V68.2656ZM247.465 247.465V204.801H281.602V247.465H247.465ZM281.602 264.535V307.199H247.465V264.535H281.602ZM281.602 145.066V187.734H247.465V145.066H281.602ZM247.465 128V85.332H281.602V128H247.465ZM298.668 145.066H332.801V187.734H298.668V145.066ZM230.398 187.734H196.266V145.066H230.398V187.734ZM196.266 204.801H230.398V247.465H196.266V204.801ZM298.668 204.801H332.801V247.465H298.668V204.801ZM332.801 128H298.668V85.332H332.801V128ZM230.398 85.332V128H196.266V85.332H230.398ZM196.266 264.535H230.398V307.199H196.266V264.535ZM298.668 307.199V264.535H332.801V307.199H298.668Z" fill="#062A4D" fill-opacity="0.37"/>
<path d="M332.801 341.332H196.266C186.84 341.332 179.199 348.973 179.199 358.398V460.801C179.199 470.227 186.84 477.867 196.266 477.867H332.801C342.227 477.867 349.867 470.227 349.867 460.801V358.398C349.867 348.973 342.227 341.332 332.801 341.332V341.332ZM196.266 460.801V358.398H332.801V460.801H196.266Z" fill="#062A4D" fill-opacity="0.37"/>
<path d="M298.668 375.465H230.398C220.973 375.465 213.332 383.109 213.332 392.535V409.602C213.332 419.027 220.973 426.668 230.398 426.668H298.668C308.094 426.668 315.734 419.027 315.734 409.602V392.535C315.734 383.109 308.094 375.465 298.668 375.465V375.465ZM230.398 409.602V392.535H298.668V409.602H230.398Z" fill="#062A4D" fill-opacity="0.37"/>
</svg>
