<svg width="512" height="512" viewBox="0 0 512 512" fill="none" xmlns="http://www.w3.org/2000/svg">
<path d="M230.398 281.602H247.465V298.668C247.465 303.379 251.289 307.199 256 307.199C260.711 307.199 264.535 303.379 264.535 298.668V247.465C264.535 242.754 260.711 238.934 256 238.934C251.289 238.934 247.465 242.754 247.465 247.465V264.535H230.398C225.687 264.535 221.867 268.355 221.867 273.066C221.867 277.781 225.687 281.602 230.398 281.602V281.602Z" fill="#062A4D" fill-opacity="0.37"/>
<path d="M503.465 494.934H443.734V25.6016C443.734 11.4609 432.273 0 418.133 0H93.8672C79.7266 0 68.2656 11.4609 68.2656 25.6016V494.934H8.53516C3.82031 494.934 0 498.754 0 503.465C0 508.18 3.82031 512 8.53516 512H503.465C508.18 512 512 508.18 512 503.465C512 498.754 508.18 494.934 503.465 494.934V494.934ZM392.535 51.1992V366.934H375.465V102.398C375.465 92.9727 367.824 85.332 358.398 85.332H332.801C323.375 85.332 315.734 92.9727 315.734 102.398V366.934H298.668V51.1992H392.535ZM332.801 102.398H358.398V435.199H332.801V102.398ZM281.602 366.934H196.266V102.398C196.266 92.9727 188.625 85.332 179.199 85.332H153.602C144.176 85.332 136.535 92.9727 136.535 102.398V366.934H119.465V51.1992H281.602V366.934ZM153.602 102.398H179.199V435.199H153.602V102.398ZM119.465 384H136.535V435.199C136.535 444.625 144.176 452.266 153.602 452.266H179.199C188.625 452.266 196.266 444.625 196.266 435.199V384H281.602V494.934H119.465V384ZM298.668 384H315.734V435.199C315.734 444.625 323.375 452.266 332.801 452.266H358.398C367.824 452.266 375.465 444.625 375.465 435.199V384H392.535V494.934H298.668V384ZM397.535 34.1328H114.465L97.3984 17.0664H414.602L397.535 34.1328ZM85.332 29.1328L102.398 46.1992V494.934H85.332V29.1328ZM409.602 494.934V46.1992L426.668 29.1328V494.934H409.602Z" fill="#062A4D" fill-opacity="0.37"/>
</svg>
